<mxfile host="app.diagrams.net" modified="2021-11-08T08:17:10.763Z" agent="5.0 (Windows NT 10.0; Win64; x64) AppleWebKit/537.36 (KHTML, like Gecko) Chrome/95.0.4638.69 Safari/537.36" etag="MMKWXp3Fm_1wUFw71EC-" version="15.7.0" type="github">
  <diagram id="VAH-juD0u57APMwS18o0" name="Page-1">
    <mxGraphModel dx="1038" dy="547" grid="1" gridSize="10" guides="1" tooltips="1" connect="1" arrows="1" fold="1" page="1" pageScale="1" pageWidth="827" pageHeight="1169" math="0" shadow="0">
      <root>
        <mxCell id="0" />
        <mxCell id="1" parent="0" />
        <mxCell id="1UlEnNMnj7ibsae8PyBd-1" value="" style="ellipse;whiteSpace=wrap;html=1;" parent="1" vertex="1">
          <mxGeometry x="300" y="120" width="120" height="80" as="geometry" />
        </mxCell>
        <mxCell id="1UlEnNMnj7ibsae8PyBd-2" value="" style="ellipse;shape=doubleEllipse;whiteSpace=wrap;html=1;" parent="1" vertex="1">
          <mxGeometry x="360" y="250" width="100" height="60" as="geometry" />
        </mxCell>
        <mxCell id="1UlEnNMnj7ibsae8PyBd-3" value="" style="ellipse;shape=doubleEllipse;whiteSpace=wrap;html=1;" parent="1" vertex="1">
          <mxGeometry x="260" y="180" width="450" height="260" as="geometry" />
        </mxCell>
      </root>
    </mxGraphModel>
  </diagram>
</mxfile>
